<?xml version="1.0" standalone="no"?>
<!DOCTYPE svg PUBLIC "-//W3C//DTD SVG 20010904//EN"
 "http://www.w3.org/TR/2001/REC-SVG-20010904/DTD/svg10.dtd">
<svg version="1.0" xmlns="http://www.w3.org/2000/svg"
 width="512.000000pt" height="512.000000pt" viewBox="0 0 512.000000 512.000000"
 preserveAspectRatio="xMidYMid meet">

<g transform="translate(0.000000,512.000000) scale(0.100000,-0.100000)"
fill="#000000" stroke="none">
<path d="M2405 4710 c-141 -22 -327 -97 -445 -181 -74 -52 -192 -170 -245
-244 -203 -283 -250 -667 -121 -985 18 -43 22 -62 13 -65 -7 -2 -212 -47 -457
-100 -245 -52 -455 -100 -467 -107 -33 -17 -431 -686 -442 -742 -15 -82 15
-173 74 -225 19 -16 95 -53 179 -86 l146 -58 0 -441 c0 -373 2 -450 15 -488
15 -44 59 -97 100 -123 29 -19 1788 -705 1806 -705 8 0 418 157 910 350 l894
349 45 49 c25 27 51 67 58 89 9 29 12 166 12 480 l0 439 146 58 c80 32 159 70
175 84 17 13 41 47 56 75 21 43 24 61 21 121 l-4 71 -207 346 c-123 204 -217
351 -230 357 -12 7 -222 55 -467 107 -245 53 -450 98 -457 100 -9 3 -5 22 13
65 62 152 86 349 64 512 -57 427 -363 770 -781 877 -96 25 -306 36 -404 21z
m310 -165 c336 -59 606 -310 698 -650 31 -114 31 -316 0 -430 -44 -162 -121
-297 -237 -410 -345 -341 -900 -337 -1241 9 -340 344 -338 894 5 1236 206 206
487 295 775 245z m-989 -1482 c30 -48 156 -173 224 -223 265 -195 628 -251
939 -146 90 31 229 104 296 156 55 42 178 167 211 213 l20 29 330 -71 c181
-40 339 -75 351 -79 16 -5 -170 -82 -745 -307 -422 -165 -778 -300 -792 -300
-31 0 -1562 598 -1547 604 18 7 660 149 678 150 9 1 25 -11 35 -26z m-121
-535 c451 -176 823 -323 827 -327 10 -8 -345 -600 -373 -623 -12 -10 -31 -18
-43 -18 -34 0 -1577 606 -1598 628 -40 40 -30 64 157 376 138 229 182 296 194
291 9 -3 385 -150 836 -327z m2939 38 c187 -312 199 -342 157 -380 -25 -23
-1564 -626 -1596 -626 -13 0 -35 10 -48 23 -23 21 -362 578 -369 606 -2 9 266
119 832 341 459 181 838 329 841 329 3 1 86 -131 183 -293z m-2067 -2203 c-2
-1 -372 141 -823 317 -530 208 -825 328 -836 341 -17 19 -18 55 -18 425 0 222
3 404 7 404 4 0 262 -100 573 -222 625 -245 635 -248 728 -208 29 13 64 36 77
52 14 16 85 129 157 251 l133 221 3 -789 c1 -433 1 -790 -1 -792z m306 1352
c69 -115 135 -222 146 -237 12 -15 46 -39 76 -54 96 -46 99 -45 737 204 311
122 569 222 572 222 3 0 6 -182 6 -404 0 -370 -1 -406 -17 -425 -12 -14 -295
-129 -836 -341 -450 -176 -821 -320 -823 -320 -2 0 -4 356 -4 792 0 440 4 788
9 783 4 -6 65 -104 134 -220z"/>
<path d="M2415 4306 c-37 -17 -70 -52 -84 -89 -6 -16 -11 -88 -11 -162 l0
-134 -149 -3 c-163 -3 -178 -8 -225 -72 -19 -25 -21 -42 -21 -166 0 -124 2
-141 21 -166 47 -64 62 -69 224 -72 l149 -3 3 -149 c3 -162 8 -177 72 -224 25
-19 42 -21 166 -21 124 0 141 2 166 21 64 47 69 62 72 224 l3 149 149 3 c162
3 177 8 224 72 19 25 21 42 21 166 0 124 -2 141 -21 166 -47 64 -62 69 -224
72 l-149 3 -3 149 c-3 132 -5 152 -24 176 -46 62 -65 69 -202 72 -91 1 -135
-2 -157 -12z m225 -321 c0 -238 -13 -225 225 -225 l175 0 0 -80 0 -80 -175 0
c-238 0 -225 13 -225 -225 l0 -175 -80 0 -80 0 0 175 c0 238 13 225 -225 225
l-175 0 0 80 0 80 175 0 c238 0 225 -13 225 225 l0 175 80 0 80 0 0 -175z"/>
</g>
</svg>
