<?xml version="1.0" standalone="no"?>
<!DOCTYPE svg PUBLIC "-//W3C//DTD SVG 20010904//EN"
 "http://www.w3.org/TR/2001/REC-SVG-20010904/DTD/svg10.dtd">
<svg version="1.0" xmlns="http://www.w3.org/2000/svg"
 width="512.000000pt" height="512.000000pt" viewBox="0 0 512.000000 512.000000"
 preserveAspectRatio="xMidYMid meet">

<g transform="translate(0.000000,512.000000) scale(0.100000,-0.100000)"
fill="#000000" stroke="none">
<path d="M2205 4785 c-421 -78 -740 -388 -831 -809 -20 -92 -21 -298 -1 -396
144 -715 966 -1059 1569 -657 209 139 361 352 430 605 31 112 31 382 0 494
-103 374 -378 652 -737 744 -128 32 -313 41 -430 19z m420 -229 c226 -77 397
-228 493 -436 57 -123 76 -212 75 -350 -3 -385 -256 -702 -631 -791 -116 -28
-311 -23 -417 11 -274 87 -487 307 -561 580 -25 91 -25 320 0 410 81 292 301
511 596 590 63 17 98 20 220 17 126 -3 155 -7 225 -31z"/>
<path d="M3177 2650 c-151 -48 -275 -177 -324 -335 -17 -56 -18 -111 -18 -820
0 -834 -3 -789 60 -915 49 -98 157 -190 273 -232 51 -20 83 -22 318 -26 161
-2 283 0 320 7 82 15 194 73 254 131 44 43 50 54 50 90 0 52 -22 86 -66 100
-43 15 -69 6 -122 -40 -85 -75 -83 -75 -402 -75 -254 0 -289 2 -317 18 -55 30
-103 78 -131 131 l-27 51 -3 746 c-2 734 -2 748 18 802 25 67 84 131 148 160
43 20 66 22 295 25 295 4 321 -1 412 -78 49 -41 66 -50 98 -50 55 0 97 43 97
100 0 35 -7 48 -45 89 -50 54 -141 106 -219 127 -37 10 -125 14 -331 13 -245
0 -287 -2 -338 -19z"/>
<path d="M2015 2193 c-456 -41 -942 -180 -1360 -389 -117 -59 -173 -105 -208
-169 -22 -39 -22 -50 -25 -493 l-3 -453 27 -60 c29 -64 78 -115 146 -151 l43
-23 775 -3 c532 -2 783 1 800 8 30 12 60 58 60 90 0 31 -29 76 -57 89 -17 8
-254 11 -766 11 -724 0 -743 1 -775 20 -18 11 -37 32 -42 46 -6 15 -10 187
-10 418 0 468 -15 421 159 504 428 202 829 312 1281 352 144 12 170 20 193 59
20 34 21 60 5 96 -23 51 -83 62 -243 48z"/>
<path d="M4124 1976 c-27 -27 -34 -42 -34 -72 0 -35 10 -47 132 -171 l132
-133 -456 0 -456 0 -30 -25 c-17 -14 -33 -38 -37 -54 -8 -36 16 -95 43 -110
14 -7 170 -11 479 -11 l458 0 -122 -122 c-66 -68 -126 -133 -132 -145 -34 -68
13 -143 90 -143 42 0 45 2 263 218 230 226 237 234 247 267 13 47 -12 81 -223
293 -117 117 -225 220 -240 228 -44 23 -77 17 -114 -20z"/>
</g>
</svg>
