<?xml version="1.0" standalone="no"?>
<!DOCTYPE svg PUBLIC "-//W3C//DTD SVG 20010904//EN"
 "http://www.w3.org/TR/2001/REC-SVG-20010904/DTD/svg10.dtd">
<svg version="1.0" xmlns="http://www.w3.org/2000/svg"
 width="512.000000pt" height="512.000000pt" viewBox="0 0 512.000000 512.000000"
 preserveAspectRatio="xMidYMid meet">

<g transform="translate(0.000000,512.000000) scale(0.100000,-0.100000)"
fill="#000000" stroke="none">
<path d="M3332 5105 c-230 -41 -426 -142 -599 -308 -182 -176 -302 -405 -334
-636 -6 -42 -13 -86 -15 -98 l-4 -22 -365 -3 -365 -3 -27 -28 -28 -27 -3 -600
-2 -600 -658 0 c-729 0 -689 4 -718 -66 -21 -50 -21 -2598 0 -2649 30 -70
-110 -65 1776 -65 1468 0 1705 2 1729 15 18 9 38 35 56 72 15 32 203 438 417
903 264 571 390 855 390 877 0 41 -25 81 -58 93 -14 6 -182 10 -390 10 l-364
0 0 376 0 376 -29 29 -29 29 -161 0 -161 0 0 573 c0 370 -4 585 -11 610 -7 26
-21 44 -42 57 -30 19 -53 20 -386 20 l-354 0 7 66 c13 128 77 291 161 409 50
70 169 187 238 234 76 52 206 109 303 133 111 27 301 30 410 5 379 -84 670
-398 723 -782 6 -42 11 -221 11 -397 l0 -321 -48 45 c-57 54 -95 65 -146 44
-43 -18 -69 -68 -60 -114 4 -20 52 -76 160 -183 153 -153 155 -154 199 -154
44 0 46 2 191 145 80 80 152 159 160 176 34 80 -46 163 -129 135 -17 -7 -51
-30 -74 -53 l-41 -41 -4 384 c-4 375 -5 386 -30 480 -116 430 -424 734 -851
840 -110 27 -331 34 -445 14z m-162 -2205 l0 -930 -685 0 -685 0 0 930 0 930
685 0 685 0 0 -930z m-1580 -630 l0 -300 -247 0 c-218 0 -251 -2 -277 -18 -24
-14 -77 -123 -333 -677 -167 -363 -306 -662 -309 -664 -2 -2 -4 437 -4 977 l0
982 585 0 585 0 0 -300z m1970 0 l0 -300 -85 0 -85 0 0 300 0 300 85 0 85 0 0
-300z m750 -514 c0 -2 -160 -350 -355 -773 l-354 -768 -1561 -3 c-858 -1
-1560 1 -1560 4 0 3 149 328 331 722 183 395 342 741 355 770 l24 52 1560 0
c858 0 1560 -2 1560 -4z"/>
<path d="M2063 3510 c-57 -34 -61 -121 -8 -167 l26 -23 400 0 c434 0 443 1
467 55 22 47 15 84 -22 121 l-34 34 -399 0 c-378 0 -400 -1 -430 -20z"/>
<path d="M2075 2966 c-28 -12 -45 -35 -59 -79 -8 -25 17 -81 45 -101 21 -14
70 -16 427 -16 257 0 410 4 423 10 10 6 26 24 34 40 23 45 19 85 -14 122 l-29
33 -399 2 c-313 2 -404 0 -428 -11z"/>
<path d="M2074 2414 c-88 -43 -72 -167 25 -194 49 -13 735 -13 783 0 69 20
101 102 62 159 -35 49 -56 51 -461 51 -319 0 -383 -3 -409 -16z"/>
</g>
</svg>
