<?xml version="1.0" standalone="no"?>
<!DOCTYPE svg PUBLIC "-//W3C//DTD SVG 20010904//EN"
 "http://www.w3.org/TR/2001/REC-SVG-20010904/DTD/svg10.dtd">
<svg version="1.0" xmlns="http://www.w3.org/2000/svg"
 width="512.000000pt" height="512.000000pt" viewBox="0 0 512.000000 512.000000"
 preserveAspectRatio="xMidYMid meet">

<g transform="translate(0.000000,512.000000) scale(0.100000,-0.100000)"
fill="#000000" stroke="none">
<path d="M2563 5106 c-77 -25 -127 -64 -278 -215 l-149 -151 -96 95 c-132 129
-196 160 -330 160 -83 0 -103 -4 -160 -29 -59 -27 -96 -60 -378 -340 -173
-171 -327 -329 -342 -352 -50 -71 -73 -157 -67 -249 7 -120 37 -177 152 -295
52 -53 95 -100 95 -105 0 -6 -69 -80 -154 -165 -194 -194 -211 -224 -211 -360
0 -138 16 -165 223 -373 253 -254 237 -255 525 31 l207 206 0 -1182 c0 -1327
-3 -1267 73 -1422 59 -121 169 -231 289 -289 150 -73 121 -71 1078 -71 941 0
927 0 1063 62 159 73 274 199 341 373 l31 80 3 1768 c1 1172 -1 1781 -8 1806
-15 58 -61 113 -121 146 -91 50 -109 47 -649 -108 -261 -76 -492 -145 -512
-153 -47 -21 -93 -66 -121 -118 -19 -36 -22 -60 -25 -208 l-4 -168 -461 0
-462 0 547 548 c604 604 579 574 544 666 -25 65 -323 356 -402 393 -70 32
-176 40 -241 19z m202 -376 l90 -90 -870 -870 -870 -870 -88 88 c-61 62 -87
96 -87 113 0 19 194 219 848 872 560 560 854 847 867 847 12 0 57 -36 110 -90z
m-1007 -44 c15 -8 58 -46 97 -85 l70 -71 -348 -348 -347 -347 -85 86 c-92 93
-102 118 -71 177 16 30 560 574 591 591 28 15 61 14 93 -3z m2422 -976 l0
-240 -313 0 c-173 0 -362 3 -421 7 l-107 6 3 115 3 115 415 118 c228 64 416
118 418 118 1 1 2 -107 2 -239z m-2 -1842 l-3 -1313 -34 -63 c-41 -75 -94
-125 -170 -161 l-56 -26 -845 -3 c-576 -2 -861 1 -897 8 -70 15 -163 77 -203
136 -18 26 -41 74 -52 106 -17 57 -18 123 -18 1344 l0 1284 1140 0 1140 0 -2
-1312z"/>
<path d="M2325 2775 c-49 -17 -81 -53 -95 -104 -7 -27 -10 -336 -8 -953 3
-892 3 -914 23 -947 59 -100 189 -106 252 -12 l23 34 0 945 c0 942 0 945 -21
979 -36 58 -108 82 -174 58z"/>
<path d="M2981 2768 c-25 -13 -54 -36 -65 -51 -21 -28 -21 -35 -21 -977 0
-942 0 -949 21 -976 37 -51 71 -69 127 -69 38 0 61 6 83 22 68 48 64 -8 64
1026 l0 934 -22 33 c-51 74 -117 94 -187 58z"/>
<path d="M3666 2780 c-16 -5 -40 -19 -53 -32 -56 -52 -53 -2 -53 -1008 0 -839
2 -935 16 -966 52 -110 211 -109 264 1 20 40 20 62 20 963 0 766 -2 928 -14
956 -27 65 -113 107 -180 86z"/>
</g>
</svg>
